<?xml version="1.0" encoding="UTF-8"?> <svg xmlns="http://www.w3.org/2000/svg" width="134" height="139" viewBox="0 0 134 139" fill="none"><path d="M16.9593 52.5509C17.1628 52.5509 17.3663 52.5238 17.5698 52.4559C18.6281 52.1167 19.2115 50.9903 18.8723 49.9319C18.8045 49.7012 11.5459 26.4826 19.7542 13.1838C22.739 8.33926 27.5283 5.35382 33.9729 4.32249C34.0136 4.32249 34.0542 4.30892 34.0814 4.29535C34.1221 4.29535 38.4637 3.39971 46.0479 4.91957C53.0622 6.3173 64.3639 10.1305 78.3926 20.2675C79.2066 20.851 80.3599 20.851 81.079 20.1453C81.988 19.2497 81.8387 17.7977 80.8483 17.0785C78.5554 15.4229 76.3303 13.9166 74.1867 12.5732C72.9656 11.7997 73.1013 9.98125 74.4309 9.42488C82.3272 6.12732 95.9217 1.92056 105.894 6.79226C108.824 8.2307 111.253 10.6326 112.908 13.7538C116.015 19.6161 120.126 32.1007 112.772 49.7555C112.352 50.7732 112.827 51.9538 113.858 52.3881C114.116 52.4966 114.373 52.5373 114.631 52.5373C115.418 52.5373 116.164 52.076 116.49 51.3025C124.468 32.1278 119.895 18.3676 116.463 11.8675C114.414 7.98644 111.361 4.97386 107.658 3.16902C93.3439 -3.81962 73.8204 4.96029 67.8371 8.00001C67.3216 8.25784 66.711 8.25784 66.209 8.00001C46.6991 -2.04193 34.4748 0.11573 33.2945 0.359994C25.656 1.59488 19.9577 5.19098 16.3352 11.0804C7.17719 25.9669 14.7342 50.1354 15.0599 51.1532C15.3312 52.0081 16.1181 52.5509 16.9729 52.5509H16.9593Z" fill="#4D5E4F"></path><path d="M109.951 65.0084C108.852 64.8455 107.834 65.6055 107.671 66.7046C105.881 78.7278 105.921 88.1184 105.976 103.683V105.624C105.976 106.506 106.003 107.374 106.016 108.257C106.057 110.658 106.098 112.925 105.908 115.204C104.917 126.956 101.96 131.692 99.6395 133.606C97.9571 135.003 96.5868 134.868 96.5325 134.854C89.0162 133.823 86.5605 122.125 83.1551 105.922C82.7209 103.819 82.2596 101.648 81.7712 99.4088C81.7033 99.0831 81.6491 98.7438 81.6084 98.4182C81.5405 97.9839 81.4727 97.5361 81.3778 97.1019C79.7632 89.8282 76.0186 85.5401 73.1559 83.2196C69.4249 80.1934 64.1878 80.1256 60.4161 83.0567C53.2389 88.6341 52.262 98.4182 52.2349 98.7438C48.9787 121.922 43.5111 130.023 40.5398 132.791C38.6539 134.542 35.6827 134.596 33.7697 132.927C27.1352 127.106 27.4744 110.319 27.4744 110.102C27.5829 89.5161 25.3036 66.7725 25.29 66.5418C25.1815 65.4426 24.2046 64.6284 23.0921 64.7505C21.9931 64.8591 21.1791 65.8497 21.3012 66.9489C21.3283 67.1796 23.5805 89.7061 23.472 110.034C23.4448 110.794 23.0785 128.87 31.1376 135.94C34.5837 138.966 39.9157 138.871 43.294 135.736C49.1822 130.254 53.6459 117.661 56.2373 99.2188C56.2373 99.1374 57.1192 90.7239 62.8853 86.2457C65.1647 84.468 68.353 84.5223 70.6323 86.3543C72.9931 88.2677 76.1 91.8366 77.4567 97.9839C77.5382 98.3232 77.5789 98.6624 77.6331 99.0152C77.701 99.4359 77.7552 99.8566 77.8502 100.277C78.3386 102.503 78.7864 104.66 79.2205 106.764C82.9516 124.568 85.6515 137.432 95.922 138.844C96.0034 138.857 96.2612 138.898 96.6546 138.898C97.7129 138.898 99.748 138.627 101.946 136.917C106.328 133.511 109.001 126.318 109.91 115.557C110.114 113.074 110.073 110.604 110.032 108.202C110.019 107.347 110.005 106.479 110.005 105.624V103.683C109.937 88.3084 109.91 79.0399 111.647 67.3153C111.809 66.2161 111.05 65.1984 109.951 65.0355V65.0084Z" fill="#4D5E4F"></path><path d="M131.862 56.9341H97.1563V50.4068C97.1563 47.4485 94.7413 45.033 91.7836 45.033H41.652C38.6943 45.033 36.2793 47.4485 36.2793 50.4068V56.9341H2.00799C0.895465 56.9341 0 57.8297 0 58.9425C0 60.0552 0.895465 60.9508 2.00799 60.9508H36.2793V66.5825C36.2793 69.5408 38.6943 71.9563 41.652 71.9563H91.7836C94.7413 71.9563 97.1563 69.5408 97.1563 66.5825V60.9508H131.862C132.974 60.9508 133.87 60.0552 133.87 58.9425C133.87 57.8297 132.974 56.9341 131.862 56.9341ZM40.2953 50.3932C40.2953 49.6469 40.9058 49.0362 41.652 49.0362H91.7836C92.5298 49.0362 93.1404 49.6469 93.1404 50.3932V56.9205H40.3088V50.3932H40.2953ZM93.1268 66.5825C93.1268 67.3288 92.5163 67.9395 91.7701 67.9395H41.6384C40.8922 67.9395 40.2817 67.3288 40.2817 66.5825V60.9508H93.1132V66.5825H93.1268Z" fill="#4D5E4F"></path></svg> 